<?xml version="1.0" encoding="UTF-8"?>
<svg width="512px" height="512px" viewBox="0 0 512 512" version="1.1" xmlns="http://www.w3.org/2000/svg"
>
    <!-- Generator: Sketch 42 (36781) - http://www.bohemiancoding.com/sketch -->
    <title>Group</title>
    <desc>Created with Sketch.</desc>
    <defs></defs>
    <g id="Page-1" stroke="none" stroke-width="1" fill="none" fill-rule="evenodd">
        <g id="icon" fill-rule="nonzero">
            <g id="Group">
                <path d="M458.666656,8.8e-06 L53.3333397,8.8e-06 C23.8779373,8.8e-06 7.6e-06,23.8782627 7.6e-06,53.3333409 L7.6e-06,458.666654 C8.8e-06,488.12207 23.8779373,512 53.3333397,512 L458.666653,512 C488.121735,512 512,488.12207 512,458.666656 L512,53.3333397 C512,23.8782635 488.121735,8.8e-06 458.666656,8.8e-06 Z"
                      id="Shape" fill="#3C8419"></path>
                <path d="M512,305.348633 L397.394531,190.743164 L255.998047,109.333336 L114.602219,190.743164 L244.080734,320.22168 L117.580734,247.384766 L111.625008,257.728851 L224.869797,370.973633 L117.580734,309.200195 L111.625008,319.544586 L304.080414,512 L458.666656,512 C488.121857,512 512,488.121857 512,458.666656 L512,305.348633 Z"
                      id="Shape" fill-opacity="0.5" fill="#000000"></path>
                <g transform="translate(111.000000, 109.000000)" id="Shape" fill="#FFFFFF">
                    <polygon
                            points="286.39444 81.7432709 144.998016 0.3334961 3.6021957 81.7432709 144.998016 163.151825"></polygon>
                    <polygon
                            points="289.374847 148.729004 283.418945 138.38472 144.996796 218.082764 6.5807877 138.38472 0.6248627 148.729004 144.996796 231.854156"></polygon>
                    <polygon
                            points="144.996796 279.895447 6.5807877 200.20044 0.6248627 210.544708 144.996796 293.666809 289.374847 210.544708 283.418945 200.20044"></polygon>
                </g>
            </g>
        </g>
    </g>
</svg>